<svg width="30" height="28" viewBox="0 0 30 28" fill="none" xmlns="http://www.w3.org/2000/svg">
<path d="M11.8364 20.0235C11.7231 20.0235 11.609 19.9845 11.5158 19.9052L8.31084 17.1762C8.20029 17.082 8.13672 16.9443 8.13672 16.799C8.13672 16.6539 8.20056 16.5162 8.31084 16.422L11.5158 13.693C11.7239 13.5155 12.0365 13.5407 12.214 13.7488C12.3911 13.9572 12.3663 14.2698 12.1579 14.4469L9.39594 16.799L12.1579 19.151C12.3663 19.3284 12.3911 19.641 12.214 19.8491C12.1159 19.9644 11.9766 20.0235 11.8364 20.0235Z" fill="#4985FF"/>
<path d="M18.1635 20.0235C18.0234 20.0235 17.8841 19.9644 17.7862 19.8491C17.6088 19.641 17.6339 19.3284 17.8421 19.151L20.604 16.799L17.8421 14.4469C17.6339 14.2698 17.6088 13.9572 17.7862 13.7488C17.9634 13.5407 18.2763 13.5155 18.4841 13.693L21.6891 16.422C21.7996 16.5162 21.8632 16.6539 21.8632 16.799C21.8632 16.9443 21.7996 17.082 21.6891 17.1762L18.4841 19.9052C18.391 19.9845 18.2768 20.0235 18.1635 20.0235Z" fill="#4985FF"/>
<path d="M13.8652 22.0706C13.8312 22.0706 13.7969 22.067 13.7624 22.0598C13.4949 22.0034 13.3235 21.7406 13.3799 21.473L15.3773 11.9894C15.4337 11.7219 15.6963 11.5505 15.9641 11.6069C16.2317 11.6633 16.403 11.9259 16.3466 12.1937L14.3492 21.6773C14.3 21.9105 14.0943 22.0706 13.8652 22.0706Z" fill="#4985FF"/>
<path d="M26.6745 27.2374H3.32547C1.49193 27.2374 0 25.7457 0 23.9119V4.09451C0 2.26097 1.49193 0.769043 3.32547 0.769043H26.6745C28.5081 0.769043 30 2.26097 30 4.09451V23.9119C30 25.7457 28.5081 27.2374 26.6745 27.2374ZM3.32547 1.75961C2.03807 1.75961 0.990566 2.80711 0.990566 4.09451V23.9119C0.990566 25.1993 2.03807 26.2468 3.32547 26.2468H26.6745C27.9619 26.2468 29.0094 25.1993 29.0094 23.9119V4.09451C29.0094 2.80711 27.9619 1.75961 26.6745 1.75961H3.32547Z" fill="#4985FF"/>
<path d="M29.5047 8.69955H0.495283C0.221661 8.69955 0 8.47789 0 8.20427C0 7.93092 0.221661 7.70898 0.495283 7.70898H29.5047C29.7783 7.70898 30 7.93092 30 8.20427C30 8.47789 29.7783 8.69955 29.5047 8.69955Z" fill="#4985FF"/>
<path d="M8.46191 6.32959C7.59793 6.32959 6.89453 5.62619 6.89453 4.76221C6.89453 3.89795 7.59793 3.19482 8.46191 3.19482C9.32617 3.19482 10.0293 3.89795 10.0293 4.76221C10.0293 5.62619 9.32617 6.32959 8.46191 6.32959ZM8.46191 4.18539C8.14407 4.18539 7.8851 4.44409 7.8851 4.76221C7.8851 5.08033 8.14407 5.33902 8.46191 5.33902C8.78003 5.33902 9.03873 5.08033 9.03873 4.76221C9.03873 4.44409 8.78003 4.18539 8.46191 4.18539Z" fill="#4985FF"/>
<path d="M3.64746 6.31445C2.7832 6.31445 2.08008 5.61133 2.08008 4.74707C2.08008 3.88281 2.7832 3.17969 3.64746 3.17969C4.51171 3.17969 5.21484 3.88281 5.21484 4.74707C5.21484 5.61133 4.51171 6.31445 3.64746 6.31445ZM3.64746 4.17025C3.32962 4.17025 3.07064 4.42923 3.07064 4.74707C3.07064 5.06519 3.32962 5.32389 3.64746 5.32389C3.96558 5.32389 4.22427 5.06519 4.22427 4.74707C4.22427 4.42923 3.96558 4.17025 3.64746 4.17025Z" fill="#4985FF"/>
<path d="M13.278 6.34445C12.4141 6.34445 11.7109 5.64133 11.7109 4.77707C11.7109 3.91309 12.4141 3.20996 13.278 3.20996C14.1423 3.20996 14.8454 3.91309 14.8454 4.77707C14.8454 5.64133 14.1423 6.34445 13.278 6.34445ZM13.278 4.20025C12.9602 4.20025 12.7015 4.45895 12.7015 4.77707C12.7015 5.09519 12.9602 5.35388 13.278 5.35388C13.5962 5.35388 13.8549 5.09519 13.8549 4.77707C13.8549 4.45895 13.5962 4.20025 13.278 4.20025Z" fill="#4985FF"/>
</svg>
